<?xml version="1.0" encoding="utf-8"?>
<!-- Generator: Adobe Illustrator 27.5.0, SVG Export Plug-In . SVG Version: 6.00 Build 0)  -->
<svg version="1.1" xmlns="http://www.w3.org/2000/svg" xmlns:xlink="http://www.w3.org/1999/xlink" x="0px" y="0px"
	 viewBox="0 0 500 500" style="enable-background:new 0 0 500 500;" xml:space="preserve">
<g id="BACKGROUND">
	<rect y="0" style="fill:#FAFAFA;" width="500" height="500"/>
</g>
<g id="OBJECTS">
	<g>
		<g>
			<path style="fill:#D2D3FC;" d="M81.645,424.05H429.77c8.051-5.295,15.102-11.957,20.544-20.007
				c15.495-22.919,14.203-57.511-6.771-75.553c-13.12-11.286-30.99-14.716-47.448-20.07s-33.741-14.707-38.992-31.198
				c-4.706-14.78,1.703-30.706,1.044-46.203c-1.123-26.389-24.083-48.655-49.948-54.007c-25.865-5.352-53.142,3.834-74.419,19.485
				c-21.277,15.651-37.392,37.232-51.962,59.263c-9.138,13.816-19.977,29.381-36.431,31.286
				c-21.377,2.476-38.365-19.623-59.776-21.786c-21.194-2.141-39.909,16.942-44.648,37.711c-4.739,20.768,1.036,42.38,7.627,62.637
				C55.537,386.96,65.33,409.847,81.645,424.05z"/>
			<path style="fill:#E0E1FC;" d="M390.001,374.161c-21.511-3.301-45.187-4.039-61.66-18.26
				c-11.241-9.704-17.285-25.108-15.641-39.867c1.123-10.088,5.539-19.509,7.604-29.448c2.065-9.939,1.197-21.576-6.353-28.361
				c-6.86-6.164-17.331-6.486-26.19-3.924c-22.016,6.367-36.49,26.673-50.396,44.89c-13.906,18.217-31.706,37.008-54.609,37.847
				c-17.551,0.643-33.565-9.593-50.824-12.844c-22.619-4.26-47.238,4.623-61.925,22.344c-8.744,10.55-13.754,23.977-14.61,37.639
				c6.331,15.233,14.632,29.757,26.251,39.873h334.857c7.474-8.486,11.439-20.991,6.757-31.253
				C417.752,380.728,403.113,376.173,390.001,374.161z"/>
			<g>
				<path style="fill:#444E8F;" d="M211.623,424.05H88.148c-12.4,0-23.332-10.052-24.417-22.452L42.679,160.966
					c-1.085-12.4,8.088-22.452,20.488-22.452h123.474c12.4,0,23.332,10.052,24.417,22.452l21.053,240.632
					C233.196,413.998,224.023,424.05,211.623,424.05z"/>
				<path style="fill:#5E6BC6;" d="M220.802,424.05H97.328c-12.4,0-23.332-10.052-24.417-22.452L51.859,160.966
					c-1.085-12.4,8.088-22.452,20.488-22.452h123.474c12.4,0,23.332,10.052,24.417,22.452l21.053,240.632
					C242.375,413.998,233.202,424.05,220.802,424.05z"/>
				<path style="fill:#FFFFFF;" d="M196.624,147.693h-20.116l0.465,5.32c0.355,4.061-2.659,7.365-6.72,7.365h-68.513
					c-4.061,0-7.654-3.304-8.009-7.365l-0.465-5.32H73.15c-7.319,0-12.752,5.954-12.112,13.273L82.09,401.598
					c0.64,7.319,7.115,13.274,14.434,13.274h123.475c7.319,0,12.752-5.954,12.111-13.274l-21.053-240.632
					C210.418,153.647,203.943,147.693,196.624,147.693z"/>
				<path style="opacity:0.1;fill:#5E6BC6;" d="M196.948,410.376H118.79c-1.404,0-2.642-1.138-2.764-2.542v0
					c-0.123-1.404,0.916-2.542,2.32-2.542h78.158c1.404,0,2.642,1.138,2.764,2.542v0
					C199.39,409.238,198.352,410.376,196.948,410.376z"/>
				<path style="fill:#BCCCFF;" d="M193.829,194.263H83.393c-4.897,0-9.215-3.97-9.644-8.868l-0.267-3.049
					c-0.428-4.898,3.194-8.868,8.092-8.868H192.01c4.897,0,9.215,3.97,9.643,8.868l0.267,3.049
					C202.349,190.292,198.726,194.263,193.829,194.263z"/>
				<path style="fill:#FFBF4C;" d="M192.008,394.342h-71.786c-4.898,0-9.215-3.97-9.644-8.868l-0.267-3.049
					c-0.429-4.897,3.194-8.868,8.092-8.868h71.786c4.897,0,9.215,3.97,9.643,8.868l0.267,3.049
					C200.529,390.372,196.906,394.342,192.008,394.342z"/>
				<path style="fill:#444E8F;" d="M138.014,147.693c0.151,1.727-1.127,3.127-2.853,3.127c-1.727,0-3.249-1.4-3.401-3.127
					c-0.151-1.727,1.126-3.127,2.853-3.127C136.34,144.566,137.863,145.966,138.014,147.693z"/>
				
					<text transform="matrix(0.9962 0 0.0872 0.9962 103.1467 187.9643)" style="fill:#FFFFFF; font-family:'Montserrat-SemiBold'; font-size:11.6393px;">SEPTEMBER</text>
				
					<text transform="matrix(0.9962 0 0.0872 0.9962 122.8295 387.4243)" style="fill:#FFFFFF; font-family:'Montserrat-SemiBold'; font-size:11.6393px;">BOOK NOW</text>
				<g>
					<g>
						<path style="fill:#DBE4FF;" d="M88.683,228.207h-7.367c-2.11,0-3.97-1.711-4.155-3.821l-0.645-7.367
							c-0.185-2.11,1.376-3.821,3.486-3.821h7.367c2.11,0,3.97,1.711,4.155,3.821l0.645,7.367
							C92.354,226.497,90.793,228.207,88.683,228.207z"/>
						<path style="fill:#DBE4FF;" d="M107.543,228.207h-7.367c-2.11,0-3.97-1.711-4.155-3.821l-0.645-7.367
							c-0.185-2.11,1.376-3.821,3.486-3.821h7.367c2.11,0,3.97,1.711,4.155,3.821l0.645,7.367
							C111.214,226.497,109.653,228.207,107.543,228.207z"/>
						<path style="fill:#DBE4FF;" d="M126.404,228.207h-7.367c-2.11,0-3.97-1.711-4.155-3.821l-0.645-7.367
							c-0.185-2.11,1.376-3.821,3.486-3.821h7.367c2.11,0,3.97,1.711,4.155,3.821l0.645,7.367
							C130.075,226.497,128.514,228.207,126.404,228.207z"/>
						<path style="fill:#BCCCFF;" d="M145.264,228.207h-7.367c-2.11,0-3.97-1.711-4.155-3.821l-0.645-7.367
							c-0.185-2.11,1.376-3.821,3.486-3.821h7.367c2.11,0,3.97,1.711,4.155,3.821l0.645,7.367
							C148.935,226.497,147.374,228.207,145.264,228.207z"/>
						<path style="fill:#BCCCFF;" d="M164.125,228.207h-7.367c-2.11,0-3.97-1.711-4.155-3.821l-0.645-7.367
							c-0.185-2.11,1.376-3.821,3.486-3.821h7.367c2.11,0,3.97,1.711,4.155,3.821l0.645,7.367
							C167.796,226.497,166.235,228.207,164.125,228.207z"/>
						<path style="fill:#BCCCFF;" d="M182.985,228.207h-7.367c-2.11,0-3.97-1.711-4.155-3.821l-0.645-7.367
							c-0.185-2.11,1.376-3.821,3.486-3.821h7.367c2.11,0,3.97,1.711,4.155,3.821l0.645,7.367
							C186.656,226.497,185.095,228.207,182.985,228.207z"/>
						<path style="fill:#BCCCFF;" d="M201.846,228.207h-7.367c-2.11,0-3.97-1.711-4.155-3.821l-0.645-7.367
							c-0.185-2.11,1.376-3.821,3.486-3.821h7.367c2.11,0,3.97,1.711,4.155,3.821l0.645,7.367
							C205.516,226.497,203.956,228.207,201.846,228.207z"/>
					</g>
					<g>
						<path style="fill:#BCCCFF;" d="M90.828,252.729h-7.367c-2.11,0-3.97-1.711-4.155-3.821l-0.645-7.367
							c-0.185-2.11,1.376-3.821,3.486-3.821h7.367c2.11,0,3.97,1.711,4.155,3.821l0.645,7.367
							C94.499,251.018,92.938,252.729,90.828,252.729z"/>
						<path style="fill:#BCCCFF;" d="M109.688,252.729h-7.367c-2.11,0-3.97-1.711-4.155-3.821l-0.645-7.367
							c-0.185-2.11,1.376-3.821,3.486-3.821h7.367c2.11,0,3.97,1.711,4.155,3.821l0.645,7.367
							C113.359,251.018,111.799,252.729,109.688,252.729z"/>
						<path style="fill:#BCCCFF;" d="M128.549,252.729h-7.367c-2.11,0-3.97-1.711-4.155-3.821l-0.645-7.367
							c-0.185-2.11,1.376-3.821,3.486-3.821h7.367c2.11,0,3.97,1.711,4.155,3.821l0.645,7.367
							C132.22,251.018,130.659,252.729,128.549,252.729z"/>
						<path style="fill:#BCCCFF;" d="M147.409,252.729h-7.367c-2.11,0-3.97-1.711-4.155-3.821l-0.645-7.367
							c-0.185-2.11,1.376-3.821,3.486-3.821h7.367c2.11,0,3.97,1.711,4.155,3.821l0.645,7.367
							C151.08,251.018,149.52,252.729,147.409,252.729z"/>
						<path style="fill:#BCCCFF;" d="M166.27,252.729h-7.367c-2.11,0-3.97-1.711-4.155-3.821l-0.645-7.367
							c-0.185-2.11,1.376-3.821,3.486-3.821h7.367c2.11,0,3.97,1.711,4.155,3.821l0.645,7.367
							C169.941,251.018,168.38,252.729,166.27,252.729z"/>
						<path style="fill:#BCCCFF;" d="M185.13,252.729h-7.367c-2.11,0-3.97-1.711-4.155-3.821l-0.645-7.367
							c-0.185-2.11,1.376-3.821,3.486-3.821h7.367c2.11,0,3.97,1.711,4.155,3.821l0.645,7.367
							C188.801,251.018,187.24,252.729,185.13,252.729z"/>
						<path style="fill:#BCCCFF;" d="M203.991,252.729h-7.367c-2.11,0-3.97-1.711-4.155-3.821l-0.645-7.367
							c-0.185-2.11,1.376-3.821,3.486-3.821h7.367c2.11,0,3.97,1.711,4.155,3.821l0.645,7.367
							C207.662,251.018,206.101,252.729,203.991,252.729z"/>
					</g>
					<g>
						<path style="fill:#BCCCFF;" d="M92.973,277.25h-7.367c-2.11,0-3.97-1.711-4.155-3.821l-0.645-7.367
							c-0.185-2.11,1.376-3.821,3.486-3.821h7.367c2.11,0,3.97,1.711,4.155,3.821l0.645,7.367
							C96.644,275.539,95.083,277.25,92.973,277.25z"/>
						<path style="fill:#BCCCFF;" d="M111.834,277.25h-7.367c-2.11,0-3.97-1.711-4.155-3.821l-0.645-7.367
							c-0.185-2.11,1.376-3.821,3.486-3.821h7.367c2.11,0,3.97,1.711,4.155,3.821l0.645,7.367
							C115.505,275.539,113.944,277.25,111.834,277.25z"/>
						<path style="fill:#BCCCFF;" d="M130.694,277.25h-7.367c-2.11,0-3.97-1.711-4.155-3.821l-0.645-7.367
							c-0.185-2.11,1.376-3.821,3.486-3.821h7.367c2.11,0,3.97,1.711,4.155,3.821l0.645,7.367
							C134.365,275.539,132.804,277.25,130.694,277.25z"/>
						<path style="fill:#BCCCFF;" d="M149.555,277.25h-7.367c-2.11,0-3.97-1.711-4.155-3.821l-0.645-7.367
							c-0.185-2.11,1.376-3.821,3.486-3.821h7.367c2.11,0,3.97,1.711,4.155,3.821l0.645,7.367
							C153.226,275.539,151.665,277.25,149.555,277.25z"/>
						<path style="fill:#BCCCFF;" d="M168.415,277.25h-7.367c-2.11,0-3.97-1.711-4.155-3.821l-0.645-7.367
							c-0.185-2.11,1.376-3.821,3.486-3.821h7.367c2.11,0,3.97,1.711,4.155,3.821l0.645,7.367
							C172.086,275.539,170.525,277.25,168.415,277.25z"/>
						<path style="fill:#BCCCFF;" d="M187.276,277.25h-7.367c-2.11,0-3.97-1.711-4.155-3.821l-0.645-7.367
							c-0.185-2.11,1.376-3.821,3.486-3.821h7.367c2.11,0,3.97,1.711,4.155,3.821l0.645,7.367
							C190.947,275.539,189.386,277.25,187.276,277.25z"/>
						<path style="fill:#BCCCFF;" d="M206.136,277.25h-7.367c-2.11,0-3.97-1.711-4.155-3.821l-0.645-7.367
							c-0.185-2.11,1.376-3.821,3.486-3.821h7.367c2.11,0,3.97,1.711,4.155,3.821l0.645,7.367
							C209.807,275.539,208.246,277.25,206.136,277.25z"/>
					</g>
					<g>
						<path style="fill:#BCCCFF;" d="M95.119,301.771h-7.367c-2.11,0-3.97-1.711-4.155-3.821l-0.645-7.367
							c-0.185-2.11,1.376-3.821,3.486-3.821h7.367c2.11,0,3.97,1.711,4.155,3.821l0.645,7.367
							C98.79,300.06,97.229,301.771,95.119,301.771z"/>
						<path style="fill:#BCCCFF;" d="M113.979,301.771h-7.367c-2.11,0-3.97-1.711-4.155-3.821l-0.645-7.367
							c-0.185-2.11,1.376-3.821,3.486-3.821h7.367c2.11,0,3.97,1.711,4.155,3.821l0.645,7.367
							C117.65,300.06,116.089,301.771,113.979,301.771z"/>
						<path style="fill:#BCCCFF;" d="M132.839,301.771h-7.367c-2.11,0-3.97-1.711-4.155-3.821l-0.645-7.367
							c-0.185-2.11,1.376-3.821,3.486-3.821h7.367c2.11,0,3.97,1.711,4.155,3.821l0.645,7.367
							C136.51,300.06,134.95,301.771,132.839,301.771z"/>
						<path style="fill:#FFBF4C;" d="M151.7,301.771h-7.367c-2.11,0-3.97-1.711-4.155-3.821l-0.645-7.367
							c-0.185-2.11,1.376-3.821,3.486-3.821h7.367c2.11,0,3.97,1.711,4.155,3.821l0.645,7.367
							C155.371,300.06,153.81,301.771,151.7,301.771z"/>
						<path style="fill:#BCCCFF;" d="M170.561,301.771h-7.367c-2.11,0-3.97-1.711-4.155-3.821l-0.645-7.367
							c-0.185-2.11,1.376-3.821,3.486-3.821h7.367c2.11,0,3.97,1.711,4.155,3.821l0.645,7.367
							C174.232,300.06,172.671,301.771,170.561,301.771z"/>
						<path style="fill:#BCCCFF;" d="M189.421,301.771h-7.367c-2.11,0-3.97-1.711-4.155-3.821l-0.645-7.367
							c-0.185-2.11,1.376-3.821,3.486-3.821h7.367c2.11,0,3.97,1.711,4.155,3.821l0.645,7.367
							C193.092,300.06,191.531,301.771,189.421,301.771z"/>
						<path style="fill:#BCCCFF;" d="M208.281,301.771h-7.367c-2.11,0-3.97-1.711-4.155-3.821l-0.645-7.367
							c-0.185-2.11,1.376-3.821,3.486-3.821h7.367c2.11,0,3.97,1.711,4.155,3.821l0.645,7.367
							C211.952,300.06,210.392,301.771,208.281,301.771z"/>
					</g>
				</g>
				<path style="fill:#DBE4FF;" d="M207.264,326.307H91.403c-2.941,0-5.534-2.384-5.791-5.325l0,0
					c-0.257-2.941,1.918-5.325,4.859-5.325h115.861c2.941,0,5.534,2.384,5.791,5.325l0,0
					C212.381,323.923,210.205,326.307,207.264,326.307z"/>
				<path style="fill:#DBE4FF;" d="M208.736,343.131H92.875c-2.941,0-5.534-2.384-5.791-5.325l0,0
					c-0.257-2.941,1.918-5.325,4.859-5.325h115.861c2.941,0,5.534,2.384,5.791,5.325l0,0
					C213.852,340.746,211.677,343.131,208.736,343.131z"/>
				<path style="fill:#DBE4FF;" d="M210.208,359.954H94.347c-2.941,0-5.534-2.384-5.791-5.325v0
					c-0.257-2.941,1.918-5.325,4.859-5.325h115.861c2.941,0,5.534,2.384,5.791,5.325v0
					C215.324,357.57,213.149,359.954,210.208,359.954z"/>
				<g>
					<polygon style="fill:#5E6BC6;" points="74.022,158.518 71.398,158.518 71.267,157.019 73.891,157.019 					"/>
					<polygon style="fill:#5E6BC6;" points="77.444,158.518 74.82,158.518 74.545,155.374 77.169,155.374 					"/>
					<polygon style="fill:#5E6BC6;" points="80.866,158.518 78.242,158.518 77.799,153.455 80.423,153.455 					"/>
					<polygon style="fill:#5E6BC6;" points="84.288,158.518 81.664,158.518 80.991,150.82 83.614,150.82 					"/>
				</g>
			</g>
			<g>
				<path style="fill:#5C4829;" d="M281.464,169.845c-3.438-1.179-7.139-1.248-10.748-1.68c-3.609-0.432-7.355-1.331-10.028-3.794
					c-2.673-2.463-3.82-6.888-1.664-9.814c1.209-1.64,3.172-2.524,4.692-3.881c1.52-1.357,2.573-3.76,1.348-5.388
					c-0.709-0.943-2.081-1.483-2.228-2.654c-0.241-1.917,3.054-2.898,2.77-4.809c-0.182-1.224-1.832-1.989-1.662-3.214
					c0.205-1.478,2.584-1.379,3.421-2.614c0.781-1.152-0.182-2.651-0.323-4.035c-0.216-2.113,1.674-3.975,3.734-4.493
					c2.06-0.518,4.223-0.035,6.292,0.447c3.811-3.603,8.738-6.47,13.903-7.383c1.702-0.301,3.829-0.248,4.689,1.251
					c0.797,1.39-0.008,3.215,0.536,4.722c0.759,2.102,3.52,2.47,5.755,2.522c2.234,0.051,5.012,0.535,5.637,2.681
					c0.746,2.562-2.408,5.142-1.504,7.653c0.697,1.935,3.37,2.455,4.315,4.283c0.941,1.822-0.237,3.997-1.509,5.605
					c-1.272,1.608-2.771,3.397-2.483,5.427c0.538,3.788,6.174,4.116,8.487,7.163c2.12,2.792,0.708,6.94-1.634,9.549
					c-3.717,4.142-9.401,6.179-14.965,6.269C292.728,173.749,286.727,171.65,281.464,169.845z"/>
				<path style="fill:#9C7B45;" d="M275.735,194.544c0.301-4.439-5.411-6.512-8.064-2.94c-3.796,5.112-8.784,9.442-14.197,12.835
					c-9.383,5.882-20.461,9.583-31.01,14.371c-1.051,3.154,6.338,2.135,8.647,4.525c15.083-2.703,23.748-5.194,37.011-12.867
					C273.028,207.631,275.279,201.283,275.735,194.544z"/>
				<path style="fill:#9C7B45;" d="M267.577,395.744c-0.048,5.249-0.095,10.498-0.143,15.748c4.039,0.072,8.218,0.06,12.189-0.679
					c0.747-5.357,1.339-10.501,2.582-15.765C277.712,395.104,272.07,395.688,267.577,395.744z"/>
				<path style="fill:#1C1F3B;" d="M267.447,409.911c-2.953,3.328-4.563,4.883-8.897,5.888c-4.334,1.005-8.832,1.619-12.812,3.607
					c-1.968,0.983-3.911,2.492-4.361,4.645h41.216c0.371-4.843-0.63-9.994-3.185-14.125
					C276.089,409.789,270.767,410.046,267.447,409.911z"/>
				<path style="fill:#353D70;" d="M274.242,220.288c-3.083,2.441-10.995,9.53-14.077,11.97
					c-9.062,33.033-3.886,65.169-0.791,99.282c2.016,22.23,4.033,44.46,6.049,66.69c6.586,1.309,11.969,1.817,18.647,1.115
					c0.502-36.438,1.806-73.142,4.488-109.485c0.95-12.868,5.573-26.755,4.551-39.617
					C292.085,237.381,285.875,225.868,274.242,220.288z"/>
				<path style="opacity:0.2;" d="M274.242,220.288c-3.083,2.441-10.995,9.53-14.077,11.97c-9.062,33.033-3.886,65.169-0.791,99.282
					c2.016,22.23,4.033,44.46,6.049,66.69c6.586,1.309,11.969,1.817,18.647,1.115c0.502-36.438,1.806-73.142,4.488-109.485
					c0.95-12.868,5.573-26.755,4.551-39.617C292.085,237.381,285.875,225.868,274.242,220.288z"/>
				<path style="fill:#9C7B45;" d="M314.859,397.719c0.367,4.683,1.197,9.329,2.473,13.849c3.459,0.878,7.323,1.138,10.851,0.598
					c-0.308-6.338,0.415-12.449,0.107-18.787C323.852,393.497,319.016,396.162,314.859,397.719z"/>
				<path style="fill:#353D70;" d="M264.377,217.979c-0.461,1.613-0.921,3.225-1.382,4.838c-0.883,3.089-2.081,6.532-2.933,9.63
					c3.476,10.048,10.1,19.347,17.022,27.417c0,0,28.074,114.471,36.713,139.797h19.008c0,0-7.257-36.975-13.824-74.597
					c-6.566-37.622-2.552-74.644-21.343-93.434C278.847,212.84,264.377,217.979,264.377,217.979z"/>
				<path style="opacity:0.2;" d="M302.756,238.027c-1.491-2.311-3.177-4.456-5.118-6.397c-7.133-7.133-13.641-10.813-18.973-12.64
					c-6.449,1.379-12.631,4.799-17.377,9.376c-0.368,1.171-0.721,2.328-1.042,3.454C273.631,237.301,288.362,239.43,302.756,238.027
					z"/>
				<path style="fill:#FFBF4C;" d="M277.776,165.762c-4.822,3.506-10.156,6.315-14.667,10.211c-4.512,3.897-8.252,9.235-8.41,15.194
					c-0.095,3.585,1.102,7.059,2.086,10.508c2.827,9.909,3.974,20.295,3.38,30.582c12.569,1.533,25.012,1.615,37.473-0.628
					c-3.344-5.471-3.15-12.445-1.456-18.629c1.694-6.184,4.713-11.921,6.757-17.998c2.044-6.077,3.065-12.862,0.703-18.823
					C300.26,167.647,285.2,160.364,277.776,165.762z"/>
				<path style="opacity:0.2;" d="M300.862,190.781c-1.116-3.825-3.053-8.73-6.428-10.849c-4.202,10.882-3.564,23.494,1.515,33.975
					c0.075-0.303,0.15-0.606,0.232-0.906c1.449-5.29,3.865-10.255,5.813-15.384C301.828,195.302,301.511,193.006,300.862,190.781z"
					/>
				<path style="fill:#9C7B45;" d="M279.681,151.541c0.271,4.907,0.541,9.815,0.812,14.723c3.215,0.996,7.259,0.632,10.454-0.428
					c0.285-5.274-0.445-10.138-0.16-15.411C287.682,149.011,282.813,150.186,279.681,151.541z"/>
				<path style="opacity:0.2;" d="M279.872,154.997c0.202,3.666,0.404,7.333,0.607,10.999c3.829-1.974,7.347-4.538,10.401-7.576
					c-0.089-2.029-0.181-4.056-0.152-6.132c-0.951-0.561-2.066-0.902-3.215-0.959c-2.742-0.137-5.386,1.286-7.284,3.269
					C280.106,154.726,279.99,154.863,279.872,154.997z"/>
				<path style="fill:#9C7B45;" d="M273.086,135.464c-2.351,7.161-1.993,15.275,0.873,22.208c0.744,1.801,2.604,2.888,4.535,2.632
					c3.632-0.481,7.939-0.694,10.731-2.191c3.622-1.941,6.908-4.911,8.553-8.873c2.604-6.272,0.172-14.432-5.344-17.934
					C286.919,127.804,275.212,128.989,273.086,135.464z"/>
				<path style="fill:#1C1F3B;" d="M317.044,409.908c-0.934,4.52-1.868,9.041-2.801,13.561c0.611,0.568,1.332,0.663,2.156,0.526
					h22.928c0-7.019-4.872-9.326-8.734-12.132C327.254,409.439,321.169,409.975,317.044,409.908z"/>
				<g>
					<path style="fill:#9C7B45;" d="M206.492,228.649c0.057,0.179,0.113,0.359,0.17,0.538c0.351,1.109,0.999,2.162,1.909,2.885
						c1.563-0.456,3.412-0.464,5.008-0.141c0.264-0.684,0.075-1.545-0.456-2.052c-0.531-0.507-1.255-0.759-1.974-0.907
						c-0.719-0.148-1.456-0.205-2.165-0.394C208.129,228.35,207.325,228.344,206.492,228.649z"/>
					<path style="opacity:0.3;" d="M206.492,228.649c0.057,0.179,0.113,0.359,0.17,0.538c0.351,1.109,0.999,2.162,1.909,2.885
						c1.563-0.456,3.412-0.464,5.008-0.141c0.264-0.684,0.075-1.545-0.456-2.052c-0.531-0.507-1.255-0.759-1.974-0.907
						c-0.719-0.148-1.456-0.205-2.165-0.394C208.129,228.35,207.325,228.344,206.492,228.649z"/>
					<path style="fill:#9C7B45;" d="M201.728,228.631c0.469,2.747,1.285,5.435,2.422,7.98c1.037-0.475,1.601-1.678,1.554-2.817
						c-0.047-1.14-0.538-2.208-1.019-3.242c-0.215-0.461-0.197-0.871-0.471-1.298c-0.274-0.428-0.695-0.781-1.193-0.884
						C202.522,228.265,201.995,228.199,201.728,228.631z"/>
					<path style="opacity:0.3;" d="M201.728,228.631c0.469,2.747,1.285,5.435,2.422,7.98c1.037-0.475,1.601-1.678,1.554-2.817
						c-0.047-1.14-0.538-2.208-1.019-3.242c-0.215-0.461-0.197-0.871-0.471-1.298c-0.274-0.428-0.695-0.781-1.193-0.884
						C202.522,228.265,201.995,228.199,201.728,228.631z"/>
					<path style="fill:#9C7B45;" d="M205.189,230.069c0.057,0.179,0.114,0.359,0.17,0.538c0.351,1.109,0.999,2.162,1.909,2.885
						c1.563-0.456,3.412-0.464,5.008-0.142c0.264-0.684,0.075-1.545-0.456-2.052c-0.531-0.507-1.255-0.759-1.974-0.907
						c-0.719-0.147-1.456-0.205-2.165-0.394C206.826,229.771,206.022,229.764,205.189,230.069z"/>
					<path style="opacity:0.3;" d="M205.189,230.069c0.057,0.179,0.114,0.359,0.17,0.538c0.351,1.109,0.999,2.162,1.909,2.885
						c1.563-0.456,3.412-0.464,5.008-0.142c0.264-0.684,0.075-1.545-0.456-2.052c-0.531-0.507-1.255-0.759-1.974-0.907
						c-0.719-0.147-1.456-0.205-2.165-0.394C206.826,229.771,206.022,229.764,205.189,230.069z"/>
					<path style="fill:#9C7B45;" d="M231.111,223.336c-2.758,0.322-5.48,0.949-8.1,1.865c-1.664,2.408-4.592,3.665-7.479,4.143
						c-2.888,0.479-5.876,0.507-8.641,1.469c-0.607,0.211-1.209,0.469-1.85,0.531c-0.64,0.062-1.346-0.11-1.743-0.617
						c-0.396-0.507-0.318-1.378,0.257-1.668c-0.864,0.138-1.853,0.866-2.432,1.522c-0.579,0.656-1.091,1.387-1.801,1.898
						c-0.71,0.511-1.699,0.759-2.462,0.33c1.279-2.35,2.751-4.75,4.596-6.688c1.485-1.56,3.673-2.704,5.608-3.879
						c0.809-0.491,1.728-0.768,2.672-0.819c6.374-0.339,12.636-2.136,18.327-5.041c0.794,1.079,1.917,2.399,2.458,3.624
						C231.063,221.232,231.429,222.035,231.111,223.336z"/>
					<path style="opacity:0.2;" d="M210.979,225.174c-1.162,0.431-2.324,0.862-3.486,1.293c-0.655,0.243-1.313,0.489-1.947,0.781
						c-0.001,0-0.002,0.001-0.003,0.001c-2.67,0.845-5.057,4.08-5.094,4.131c0.225-0.265,0.445-0.537,0.675-0.797
						c0.381-0.432,0.941-0.893,1.525-1.197c0.015-0.008,0.031-0.016,0.046-0.024c0.087-0.044,0.175-0.085,0.263-0.122
						c0.007-0.003,0.013-0.006,0.02-0.008c0.097-0.04,0.195-0.074,0.291-0.103l0.002-0.001c0.089-0.026,0.178-0.048,0.266-0.063
						c0.084-0.087,2.67-1.678,8.144-3.674c-0.017-0.122-0.218-0.28-0.341-0.291C211.215,225.088,211.095,225.131,210.979,225.174z"
						/>
					<path style="opacity:0.2;fill:#FFFFFF;" d="M204.948,228.647c-0.387,0.163-0.787,0.335-1.067,0.648
						c-0.28,0.313-0.4,0.811-0.162,1.156c0.154,0.223,0.422,0.34,0.685,0.403c0.509,0.123,1.056,0.087,1.544-0.101
						C206.016,229.931,205.639,229.097,204.948,228.647z"/>
					<path style="opacity:0.2;fill:#FFFFFF;" d="M196.86,232.809c0.302,0.17,0.639,0.23,0.981,0.214
						c0.589-0.479,1.013-1.162,1.158-1.908c-0.208-0.277-0.489-0.483-0.801-0.628C197.728,231.255,197.282,232.034,196.86,232.809z"
						/>
				</g>
				<path style="fill:#E8E8E8;" d="M334.871,265.594l-38.865,4.466c-2.679,0.308-5.1-1.614-5.408-4.293l-2.201-19.15
					c-0.308-2.679,1.614-5.1,4.293-5.408l38.865-4.466c2.679-0.308,5.1,1.614,5.408,4.293l2.201,19.15
					C339.472,262.864,337.55,265.286,334.871,265.594z"/>
				<path style="opacity:0.2;" d="M321.266,267.124c-0.194-1.291-0.861-4.612-2.96-8.454c-0.378-0.691-0.661-1.43-0.821-2.202
					l-0.694-3.356c-0.439-4.839-0.912-9.68-1.492-14.503l-9.492,1.091c0.838,2.69,1.71,5.379,2.413,8.079l0.754,6.066
					c0.798,2.971,0.813,6.098,0.041,9.077c-0.204,0.786-0.163,1.615,0.113,2.379c0.292,0.81,0.671,1.936,0.942,2.998
					c0.012,0.048,0.021,0.094,0.033,0.141l11.163-1.283C321.265,267.146,321.268,267.135,321.266,267.124z"/>
				<path style="fill:#9C7B45;" d="M299.574,171.133c9.606,11.864,14.791,26.811,17.15,41.893c2.359,15.082,2.059,30.438,1.754,45.7
					c-2.215,0.912-5.664,1.364-7.616-0.026c1.86-12.172-5.171-24.792-2.776-36.869c1.162-5.862-4.852-11.491-7.652-16.771
					c-2.8-5.28-5.429-10.798-6.147-16.731C293.57,182.395,295.193,175.198,299.574,171.133z"/>
				<path style="fill:#FFBF4C;" d="M296.263,170.179c-5.163,12.177-3.92,26.868,3.217,38.004c5.812-2.687,10.77-7.32,14.301-12.662
					c-1.821-8.318-6.189-16.733-11.752-23.18C300.546,170.623,298.528,170.02,296.263,170.179z"/>
				<g>
					<g style="opacity:0.2;">
						<g>
							<path style="fill:#FFFFFF;" d="M272.384,263.509c-0.129,0-0.238-0.099-0.249-0.229l-0.043-0.497
								c-0.012-0.138,0.09-0.259,0.227-0.271c0.16-0.008,0.26,0.09,0.271,0.227l0.043,0.5c0.012,0.138-0.091,0.258-0.229,0.27
								C272.397,263.509,272.39,263.509,272.384,263.509z"/>
						</g>
						<g>
							<path style="fill:#FFFFFF;" d="M274.369,391.46c-0.005,0-0.01,0-0.015,0c-0.138-0.009-0.243-0.127-0.235-0.265l0.055-0.997
								c0.009-0.138,0.13-0.237,0.263-0.237c0.139,0.008,0.244,0.125,0.237,0.263l-0.055,1.001
								C274.611,391.357,274.501,391.46,274.369,391.46z M274.475,389.461c-0.004,0-0.009,0-0.013,0
								c-0.139-0.008-0.244-0.125-0.237-0.263l0.053-0.999c0.009-0.138,0.128-0.24,0.263-0.237c0.139,0.008,0.244,0.125,0.237,0.264
								l-0.053,0.998C274.718,389.357,274.607,389.461,274.475,389.461z M274.579,387.463c-0.004,0-0.008,0-0.013,0
								c-0.138-0.007-0.244-0.125-0.237-0.263l0.05-0.999c0.007-0.138,0.101-0.23,0.263-0.237c0.138,0.007,0.244,0.125,0.237,0.263
								l-0.05,0.999C274.822,387.359,274.712,387.463,274.579,387.463z M274.676,385.464c-0.004,0-0.008,0-0.013,0
								c-0.138-0.007-0.244-0.125-0.237-0.263l0.048-0.998c0.007-0.138,0.124-0.231,0.262-0.238
								c0.138,0.007,0.244,0.124,0.238,0.262l-0.048,1C274.92,385.36,274.809,385.464,274.676,385.464z M274.77,383.467
								c-0.004,0-0.008,0-0.013,0c-0.138-0.007-0.244-0.125-0.237-0.263l0.046-0.998c0.006-0.139,0.135-0.234,0.261-0.239
								c0.138,0.006,0.245,0.123,0.239,0.261l-0.046,1.002C275.013,383.363,274.903,383.467,274.77,383.467z M274.86,381.467
								c-0.004,0-0.007,0-0.011,0c-0.138-0.006-0.245-0.123-0.239-0.261l0.044-1c0.006-0.139,0.133-0.234,0.261-0.239
								c0.139,0.006,0.245,0.123,0.239,0.261l-0.044,1C275.104,381.363,274.993,381.467,274.86,381.467z M274.946,379.467
								c-0.003,0-0.007,0-0.01,0c-0.139-0.006-0.246-0.122-0.24-0.26l0.041-1c0.006-0.135,0.116-0.24,0.25-0.24
								c0.003,0,0.007,0,0.011,0c0.138,0.006,0.245,0.122,0.239,0.26l-0.041,1C275.19,379.361,275.08,379.467,274.946,379.467z
								 M275.026,377.467c-0.003,0-0.007,0-0.01,0c-0.139-0.006-0.246-0.122-0.24-0.26l0.039-1c0.005-0.135,0.116-0.24,0.25-0.24
								c0.003,0,0.006,0,0.01,0c0.138,0.006,0.245,0.121,0.24,0.26l-0.039,1C275.27,377.362,275.16,377.467,275.026,377.467z
								 M275.102,375.469c-0.003,0-0.007,0-0.01,0c-0.139-0.006-0.246-0.122-0.24-0.26l0.037-0.999
								c0.005-0.138,0.113-0.242,0.259-0.241c0.138,0.005,0.246,0.121,0.241,0.259l-0.037,1.001
								C275.346,375.363,275.236,375.469,275.102,375.469z M275.175,373.469c-0.003,0-0.006,0-0.009,0
								c-0.138-0.005-0.246-0.121-0.241-0.259l0.035-1c0.005-0.138,0.134-0.248,0.259-0.241c0.138,0.005,0.246,0.121,0.241,0.259
								l-0.035,1C275.42,373.362,275.308,373.469,275.175,373.469z M275.243,371.469c-0.003,0-0.005,0-0.008,0
								c-0.139-0.005-0.246-0.12-0.242-0.258l0.032-1c0.005-0.139,0.111-0.238,0.258-0.242c0.139,0.005,0.246,0.12,0.242,0.258
								l-0.032,1C275.488,371.362,275.378,371.469,275.243,371.469z M275.305,369.469c-0.003,0-0.005,0-0.008,0
								c-0.139-0.005-0.246-0.12-0.242-0.258l0.03-1c0.004-0.137,0.093-0.254,0.257-0.242c0.139,0.004,0.247,0.119,0.243,0.258
								l-0.03,1C275.551,369.362,275.44,369.469,275.305,369.469z M275.364,367.468c-0.003,0-0.005,0-0.008,0
								c-0.139-0.005-0.246-0.12-0.242-0.258l0.028-0.999c0.004-0.136,0.115-0.243,0.25-0.243c0.002,0,0.004,0,0.007,0
								c0.138,0.004,0.247,0.118,0.243,0.257l-0.028,1.001C275.609,367.361,275.499,367.468,275.364,367.468z M275.418,365.467
								c-0.002,0-0.004,0-0.007,0c-0.138-0.004-0.247-0.118-0.243-0.257l0.026-1c0.004-0.136,0.115-0.243,0.25-0.243
								c0.002,0,0.004,0,0.007,0c0.138,0.004,0.247,0.118,0.243,0.257l-0.026,1C275.664,365.359,275.552,365.467,275.418,365.467z
								 M275.469,363.467c-0.002,0-0.004,0-0.006,0c-0.138-0.003-0.247-0.118-0.244-0.256l0.023-1
								c0.003-0.138,0.143-0.24,0.256-0.244c0.138,0.003,0.247,0.118,0.244,0.256l-0.023,1
								C275.716,363.358,275.604,363.467,275.469,363.467z M275.514,361.467c-0.002,0-0.004,0-0.006,0
								c-0.138-0.003-0.247-0.118-0.244-0.256l0.021-0.999c0.003-0.139,0.133-0.237,0.255-0.245
								c0.139,0.003,0.248,0.117,0.245,0.255l-0.021,1.001C275.762,361.358,275.65,361.467,275.514,361.467z M275.555,359.466
								c-0.002,0-0.004,0-0.006,0c-0.138-0.003-0.247-0.118-0.244-0.256l0.02-0.999c0.002-0.136,0.114-0.245,0.25-0.245
								c0.001,0,0.003,0,0.005,0c0.138,0.003,0.247,0.116,0.245,0.255l-0.02,1.001C275.802,359.357,275.691,359.466,275.555,359.466
								z M275.593,357.465c-0.001,0-0.003,0-0.004,0c-0.139-0.003-0.248-0.116-0.246-0.254l0.018-1.001
								c0.003-0.136,0.114-0.245,0.25-0.245c0.001,0,0.003,0,0.004,0c0.139,0.003,0.248,0.116,0.246,0.255l-0.018,0.999
								C275.841,357.355,275.728,357.465,275.593,357.465z M275.626,355.464c-0.001,0-0.002,0-0.004,0
								c-0.138-0.002-0.248-0.115-0.246-0.254l0.015-1c0.002-0.137,0.113-0.246,0.25-0.246c0.001,0,0.002,0,0.004,0
								c0.138,0.002,0.248,0.115,0.246,0.254l-0.015,1C275.874,355.354,275.762,355.464,275.626,355.464z M275.653,353.463
								c-0.001,0-0.002,0-0.004,0c-0.138-0.002-0.248-0.115-0.246-0.254l0.013-0.999c0.002-0.138,0.102-0.261,0.253-0.247
								c0.138,0.002,0.249,0.115,0.247,0.253l-0.013,1.001C275.901,353.353,275.79,353.463,275.653,353.463z M275.676,351.463
								c-0.001,0-0.002,0-0.004,0c-0.138-0.002-0.248-0.115-0.246-0.254l0.011-0.999c0.001-0.138,0.113-0.248,0.25-0.248
								c0.001,0,0.001,0,0.002,0c0.139,0.001,0.249,0.114,0.248,0.252l-0.011,1.003
								C275.925,351.353,275.813,351.463,275.676,351.463z M275.696,349.462c-0.001,0-0.001,0-0.002,0
								c-0.139-0.001-0.249-0.114-0.248-0.252l0.009-1.001c0.001-0.138,0.113-0.248,0.25-0.248c0.119,0.002,0.251,0.113,0.25,0.252
								l-0.009,1.001C275.945,349.351,275.833,349.462,275.696,349.462z M275.712,347.461c0,0-0.001,0-0.002,0
								c-0.138-0.001-0.249-0.113-0.248-0.252l0.006-1c0.001-0.138,0.112-0.249,0.25-0.249c0,0,0.001,0,0.002,0
								c0.138,0.001,0.249,0.113,0.248,0.251l-0.006,1.001C275.961,347.349,275.849,347.461,275.712,347.461z M275.721,345.46
								c0,0-0.001,0-0.002,0c-0.138-0.001-0.249-0.113-0.248-0.251l0.004-1.001c0-0.138,0.112-0.249,0.25-0.249c0,0,0,0,0.001,0
								c0.138,0,0.249,0.112,0.249,0.251l-0.004,1.002C275.97,345.348,275.859,345.46,275.721,345.46z M275.728,343.459
								c-0.001,0-0.001,0-0.002,0c-0.138-0.001-0.249-0.113-0.248-0.252l0.002-0.999c0-0.138,0.112-0.25,0.25-0.25
								s0.25,0.112,0.25,0.25l-0.002,1.002C275.977,343.347,275.866,343.459,275.728,343.459z M275.729,341.458
								c-0.138,0-0.25-0.112-0.25-0.25v-1.001c0-0.138,0.112-0.25,0.25-0.25c0.138,0,0.25,0.112,0.25,0.25v1.001
								C275.979,341.345,275.867,341.458,275.729,341.458z M275.727,339.457c-0.138,0-0.25-0.111-0.25-0.249l-0.003-1.001
								c0-0.139,0.111-0.251,0.249-0.251h0.001c0.138,0,0.25,0.111,0.25,0.249l0.003,1.001c0,0.139-0.111,0.251-0.249,0.251H275.727
								z M275.72,337.455c-0.138,0-0.25-0.111-0.25-0.249l-0.005-1.001c-0.001-0.138,0.11-0.25,0.249-0.251h0.001
								c0.138,0,0.249,0.111,0.25,0.248l0.005,1.002c0,0.139-0.111,0.251-0.249,0.251H275.72z M275.71,335.451
								c-0.138,0-0.249-0.108-0.25-0.246l-0.007-1c-0.001-0.138,0.109-0.251,0.248-0.252c0,0,0.001,0,0.002,0
								c0.137,0,0.249,0.11,0.25,0.248l0.007,0.996C275.961,335.335,275.849,335.45,275.71,335.451L275.71,335.451z
								 M275.694,333.453c-0.137,0-0.249-0.11-0.25-0.248l-0.009-1.001c-0.001-0.138,0.109-0.251,0.248-0.252
								c0.001,0,0.001,0,0.002,0c0.137,0,0.249,0.11,0.25,0.248l0.009,1.001c0.001,0.138-0.109,0.251-0.248,0.252
								C275.695,333.453,275.695,333.453,275.694,333.453z M275.675,331.45c-0.137,0-0.248-0.11-0.25-0.247l-0.012-1
								c-0.002-0.138,0.109-0.251,0.247-0.253c0.141-0.025,0.251,0.109,0.253,0.247l0.012,1c0.002,0.138-0.109,0.251-0.247,0.253
								C275.676,331.45,275.676,331.45,275.675,331.45z M275.648,329.451c-0.137,0-0.248-0.11-0.25-0.247l-0.014-0.999
								c-0.002-0.139,0.108-0.252,0.246-0.254c0.002,0,0.003,0,0.004,0c0.137,0,0.248,0.109,0.25,0.246l0.014,1.001
								c0.002,0.138-0.109,0.251-0.247,0.253C275.65,329.451,275.649,329.451,275.648,329.451z M275.62,327.449
								c-0.137,0-0.248-0.109-0.25-0.246l-0.016-0.999c-0.002-0.139,0.107-0.252,0.245-0.255c0.002,0,0.004,0,0.005,0
								c0.136,0,0.248,0.109,0.25,0.245l0.016,1.001c0.002,0.139-0.108,0.252-0.246,0.254
								C275.622,327.449,275.621,327.449,275.62,327.449z M275.586,325.448c-0.136,0-0.248-0.109-0.25-0.246l-0.017-0.999
								c-0.002-0.139,0.107-0.252,0.245-0.255c0.002,0,0.004,0,0.005,0c0.136,0,0.248,0.109,0.25,0.246l0.017,1
								c0.002,0.138-0.107,0.251-0.246,0.254C275.589,325.448,275.587,325.448,275.586,325.448z M275.549,323.447
								c-0.136,0-0.247-0.108-0.25-0.245l-0.02-1c-0.003-0.138,0.106-0.252,0.245-0.255c0.14,0.026,0.252,0.107,0.255,0.245l0.02,1
								c0.003,0.138-0.106,0.252-0.245,0.255C275.551,323.447,275.551,323.447,275.549,323.447z M275.507,321.447
								c-0.136,0-0.247-0.108-0.25-0.245l-0.022-0.999c-0.003-0.138,0.106-0.253,0.244-0.256c0.15-0.005,0.253,0.107,0.256,0.244
								l0.022,1.001c0.003,0.138-0.106,0.252-0.245,0.255C275.51,321.447,275.509,321.447,275.507,321.447z M275.46,319.446
								c-0.136,0-0.247-0.108-0.25-0.244l-0.025-0.999c-0.004-0.139,0.105-0.253,0.243-0.257c0.003,0,0.005,0,0.007,0
								c0.135,0,0.246,0.107,0.25,0.243l0.025,1.001c0.003,0.138-0.107,0.253-0.244,0.256
								C275.464,319.446,275.462,319.446,275.46,319.446z M275.409,317.447c-0.135,0-0.246-0.107-0.25-0.243l-0.026-1
								c-0.004-0.139,0.105-0.253,0.243-0.257c0.003,0,0.005,0,0.007,0c0.135,0,0.246,0.108,0.25,0.243l0.026,1
								c0.004,0.139-0.105,0.253-0.243,0.257C275.413,317.447,275.411,317.447,275.409,317.447z M275.353,315.446
								c-0.135,0-0.246-0.108-0.25-0.243l-0.028-0.999c-0.004-0.139,0.105-0.254,0.242-0.258c0.003,0,0.006,0,0.008,0
								c0.135,0,0.246,0.107,0.25,0.243l0.028,1c0.004,0.139-0.105,0.253-0.243,0.257
								C275.357,315.446,275.355,315.446,275.353,315.446z M275.296,313.446c-0.135,0-0.246-0.108-0.25-0.243l-0.031-0.999
								c-0.004-0.138,0.104-0.253,0.242-0.258c0.131,0.01,0.253,0.103,0.258,0.242l0.031,1.001c0.004,0.138-0.104,0.253-0.243,0.257
								C275.301,313.446,275.298,313.446,275.296,313.446z M275.232,311.446c-0.135,0-0.245-0.107-0.25-0.242l-0.033-0.999
								c-0.005-0.138,0.103-0.254,0.241-0.259c0.134-0.006,0.254,0.103,0.259,0.241l0.033,1.001
								c0.004,0.138-0.104,0.253-0.242,0.258C275.237,311.446,275.235,311.446,275.232,311.446z M275.163,309.445
								c-0.134,0-0.245-0.107-0.25-0.241l-0.035-1c-0.005-0.138,0.104-0.254,0.241-0.259c0.137,0.013,0.254,0.103,0.259,0.241
								l0.035,1c0.005,0.138-0.104,0.254-0.241,0.259C275.169,309.445,275.166,309.445,275.163,309.445z M275.091,307.446
								c-0.134,0-0.245-0.107-0.25-0.241l-0.037-0.999c-0.005-0.139,0.103-0.254,0.24-0.26c0.004,0,0.007,0,0.01,0
								c0.134,0,0.245,0.105,0.25,0.24l0.037,1.001c0.005,0.138-0.104,0.254-0.241,0.259
								C275.096,307.446,275.094,307.446,275.091,307.446z M275.014,305.447c-0.134,0-0.245-0.105-0.25-0.24l-0.04-1
								c-0.006-0.138,0.102-0.254,0.24-0.26c0.132,0,0.254,0.103,0.26,0.24l0.04,1c0.005,0.139-0.103,0.254-0.24,0.26
								C275.02,305.447,275.017,305.447,275.014,305.447z M274.931,303.448c-0.134,0-0.244-0.105-0.25-0.24l-0.042-0.999
								c-0.006-0.138,0.102-0.255,0.239-0.261c0.144,0.006,0.255,0.101,0.261,0.239l0.042,1.001c0.006,0.138-0.102,0.254-0.24,0.26
								C274.938,303.448,274.934,303.448,274.931,303.448z M274.845,301.448c-0.133,0-0.244-0.104-0.25-0.239l-0.044-1
								c-0.006-0.138,0.101-0.255,0.239-0.261c0.129,0.006,0.255,0.101,0.261,0.239l0.044,1c0.006,0.138-0.102,0.255-0.239,0.261
								C274.852,301.448,274.849,301.448,274.845,301.448z M274.755,299.448c-0.133,0-0.244-0.104-0.25-0.239l-0.046-0.998
								c-0.006-0.138,0.101-0.255,0.238-0.262c0.138,0.006,0.255,0.101,0.262,0.238l0.046,1c0.006,0.138-0.101,0.255-0.239,0.261
								C274.762,299.448,274.759,299.448,274.755,299.448z M274.661,297.449c-0.133,0-0.243-0.105-0.25-0.238l-0.049-0.998
								c-0.007-0.138,0.1-0.256,0.237-0.263c0.167,0.005,0.256,0.1,0.263,0.237l0.049,1c0.006,0.138-0.101,0.255-0.238,0.262
								C274.669,297.449,274.665,297.449,274.661,297.449z M274.562,295.451c-0.133,0-0.243-0.104-0.25-0.237l-0.051-0.999
								c-0.007-0.138,0.099-0.255,0.237-0.263c0.146,0.007,0.255,0.1,0.263,0.237l0.051,0.999c0.007,0.138-0.1,0.256-0.237,0.263
								C274.57,295.451,274.566,295.451,274.562,295.451z M274.459,293.452c-0.132,0-0.242-0.104-0.25-0.237l-0.053-0.999
								c-0.007-0.138,0.099-0.255,0.237-0.263c0.15,0.004,0.255,0.1,0.263,0.237l0.053,0.999c0.007,0.138-0.099,0.255-0.237,0.263
								C274.468,293.452,274.463,293.452,274.459,293.452z M274.35,291.454c-0.132,0-0.242-0.103-0.25-0.237l-0.055-0.998
								c-0.007-0.138,0.099-0.256,0.236-0.264c0.137,0.003,0.256,0.098,0.264,0.236l0.055,0.999
								c0.007,0.139-0.099,0.256-0.237,0.264C274.359,291.454,274.354,291.454,274.35,291.454z M274.239,289.456
								c-0.132,0-0.242-0.102-0.25-0.236l-0.058-0.998c-0.008-0.138,0.098-0.256,0.235-0.265c0.129-0.009,0.257,0.098,0.265,0.235
								l0.058,1c0.007,0.138-0.099,0.256-0.236,0.264C274.248,289.456,274.244,289.456,274.239,289.456z M274.123,287.459
								c-0.132,0-0.242-0.103-0.25-0.235l-0.06-0.998c-0.008-0.138,0.097-0.257,0.234-0.266c0.157-0.005,0.257,0.097,0.266,0.234
								l0.06,1c0.008,0.138-0.098,0.256-0.235,0.265C274.133,287.459,274.128,287.459,274.123,287.459z M274.002,285.462
								c-0.131,0-0.241-0.102-0.25-0.234l-0.062-0.999c-0.008-0.138,0.097-0.257,0.234-0.266c0.158-0.004,0.257,0.097,0.266,0.234
								l0.062,0.999c0.008,0.138-0.097,0.257-0.234,0.266C274.012,285.462,274.007,285.462,274.002,285.462z M273.876,283.464
								c-0.131,0-0.241-0.102-0.25-0.234l-0.063-0.998c-0.01-0.138,0.095-0.256,0.233-0.265c0.137-0.03,0.257,0.096,0.265,0.233
								l0.064,0.998c0.008,0.138-0.097,0.257-0.234,0.266C273.885,283.464,273.881,283.464,273.876,283.464z M273.748,281.467
								c-0.131,0-0.241-0.102-0.249-0.233l-0.066-0.998c-0.01-0.138,0.095-0.257,0.232-0.266c0.145-0.017,0.257,0.095,0.266,0.232
								l0.066,0.998c0.01,0.139-0.095,0.257-0.232,0.266C273.759,281.467,273.753,281.467,273.748,281.467z M273.613,279.469
								c-0.131,0-0.24-0.102-0.249-0.233l-0.068-0.997c-0.01-0.138,0.094-0.257,0.231-0.267c0.134-0.025,0.257,0.094,0.267,0.232
								l0.068,0.999c0.01,0.138-0.095,0.257-0.232,0.266C273.624,279.469,273.619,279.469,273.613,279.469z M273.473,277.474
								c-0.13,0-0.24-0.101-0.249-0.232l-0.07-0.998c-0.01-0.138,0.094-0.257,0.231-0.267c0.129-0.032,0.257,0.094,0.267,0.232
								l0.07,0.998c0.01,0.138-0.094,0.257-0.231,0.267C273.485,277.474,273.479,277.474,273.473,277.474z M273.331,275.478
								c-0.13,0-0.24-0.101-0.249-0.232l-0.072-0.997c-0.011-0.138,0.093-0.257,0.23-0.268c0.149-0.016,0.258,0.093,0.268,0.231
								l0.072,0.998c0.01,0.138-0.094,0.257-0.232,0.267C273.343,275.478,273.337,275.478,273.331,275.478z M273.184,273.482
								c-0.13,0-0.239-0.1-0.249-0.232l-0.075-0.997c-0.011-0.138,0.093-0.258,0.23-0.269c0.13-0.01,0.257,0.093,0.268,0.23
								l0.075,0.999c0.011,0.138-0.093,0.257-0.23,0.268C273.196,273.482,273.19,273.482,273.184,273.482z M273.033,271.487
								c-0.13,0-0.239-0.1-0.249-0.231l-0.077-0.997c-0.011-0.137,0.092-0.258,0.23-0.269c0.134-0.011,0.259,0.091,0.269,0.23
								l0.077,0.998c0.011,0.138-0.093,0.258-0.23,0.269C273.046,271.487,273.039,271.487,273.033,271.487z M272.877,269.492
								c-0.129,0-0.239-0.099-0.249-0.23l-0.079-0.998c-0.011-0.137,0.092-0.258,0.23-0.269c0.137-0.004,0.258,0.091,0.269,0.23
								l0.079,0.997c0.011,0.137-0.092,0.258-0.229,0.269C272.889,269.492,272.883,269.492,272.877,269.492z M272.717,267.497
								c-0.129,0-0.239-0.099-0.249-0.23l-0.081-0.997c-0.012-0.138,0.091-0.258,0.228-0.27c0.135-0.007,0.258,0.091,0.27,0.229
								l0.081,0.997c0.011,0.138-0.092,0.258-0.23,0.269C272.729,267.497,272.723,267.497,272.717,267.497z M272.552,265.503
								c-0.129,0-0.238-0.099-0.249-0.23l-0.084-0.997c-0.012-0.137,0.09-0.258,0.228-0.27c0.157-0.01,0.259,0.091,0.271,0.228
								l0.084,0.998c0.012,0.138-0.091,0.258-0.228,0.27C272.566,265.503,272.559,265.503,272.552,265.503z"/>
						</g>
						<g>
							<path style="fill:#FFFFFF;" d="M274.286,392.965c-0.004,0-0.009,0-0.014,0c-0.138-0.008-0.243-0.125-0.236-0.264l0.027-0.498
								c0.008-0.138,0.139-0.24,0.263-0.237c0.139,0.008,0.244,0.125,0.237,0.263l-0.027,0.5
								C274.528,392.861,274.418,392.965,274.286,392.965z"/>
						</g>
					</g>
					<g style="opacity:0.2;">
						<g>
							<path style="fill:#FFFFFF;" d="M297.681,256.038c-0.128,0-0.236-0.097-0.249-0.227l-0.046-0.5
								c-0.012-0.138,0.09-0.259,0.227-0.271c0.142-0.003,0.259,0.09,0.271,0.227l0.046,0.497c0.013,0.138-0.088,0.259-0.226,0.272
								C297.697,256.038,297.689,256.038,297.681,256.038z"/>
						</g>
						<g>
							<path style="fill:#FFFFFF;" d="M322.388,391.105c-0.109,0-0.21-0.072-0.24-0.183l-0.267-0.962
								c-0.036-0.134,0.042-0.271,0.175-0.308c0.14-0.036,0.272,0.043,0.308,0.175l0.265,0.96c0.038,0.133-0.04,0.27-0.173,0.308
								C322.433,391.102,322.411,391.105,322.388,391.105z M321.859,389.185c-0.11,0-0.211-0.073-0.241-0.184l-0.263-0.962
								c-0.036-0.133,0.043-0.271,0.176-0.307c0.132-0.034,0.27,0.043,0.307,0.176l0.263,0.96c0.036,0.134-0.042,0.271-0.175,0.308
								C321.903,389.182,321.881,389.185,321.859,389.185z M321.336,387.262c-0.11,0-0.211-0.073-0.241-0.185l-0.26-0.963
								c-0.036-0.133,0.043-0.27,0.177-0.306c0.133-0.036,0.27,0.043,0.306,0.177l0.26,0.961c0.036,0.134-0.043,0.27-0.176,0.307
								C321.379,387.259,321.357,387.262,321.336,387.262z M320.818,385.339c-0.11,0-0.212-0.073-0.241-0.186l-0.258-0.963
								c-0.036-0.133,0.043-0.271,0.177-0.306c0.134-0.035,0.27,0.043,0.306,0.177l0.258,0.963c0.036,0.133-0.043,0.27-0.177,0.306
								C320.861,385.336,320.84,385.339,320.818,385.339z M320.303,383.412c-0.11,0-0.212-0.074-0.241-0.186l-0.255-0.964
								c-0.036-0.133,0.044-0.27,0.178-0.305c0.131-0.038,0.27,0.045,0.305,0.178l0.255,0.962c0.036,0.134-0.044,0.271-0.177,0.306
								C320.346,383.409,320.325,383.412,320.303,383.412z M319.796,381.487c-0.111,0-0.212-0.074-0.241-0.186l-0.254-0.964
								c-0.034-0.134,0.045-0.271,0.179-0.306c0.138-0.032,0.27,0.046,0.306,0.179l0.252,0.964c0.036,0.133-0.044,0.27-0.178,0.305
								C319.839,381.484,319.816,381.487,319.796,381.487z M319.292,379.558c-0.111,0-0.213-0.074-0.242-0.187l-0.25-0.966
								c-0.034-0.134,0.046-0.27,0.18-0.305c0.132-0.03,0.269,0.047,0.305,0.18l0.25,0.964c0.034,0.134-0.046,0.27-0.179,0.306
								C319.334,379.555,319.312,379.558,319.292,379.558z M318.795,377.629c-0.111,0-0.213-0.074-0.242-0.186l-0.248-0.967
								c-0.034-0.134,0.047-0.27,0.181-0.304c0.133-0.031,0.27,0.047,0.304,0.181l0.248,0.963c0.034,0.134-0.046,0.271-0.179,0.306
								C318.837,377.626,318.815,377.629,318.795,377.629z M318.3,375.698c-0.111,0-0.213-0.075-0.242-0.189l-0.245-0.967
								c-0.034-0.134,0.047-0.27,0.182-0.303c0.136-0.04,0.27,0.048,0.303,0.182l0.245,0.965c0.034,0.134-0.047,0.27-0.181,0.304
								C318.341,375.695,318.32,375.698,318.3,375.698z M317.811,373.767c-0.112,0-0.214-0.075-0.242-0.189l-0.243-0.967
								c-0.034-0.134,0.047-0.27,0.182-0.303c0.137-0.04,0.27,0.047,0.303,0.182l0.243,0.967c0.034,0.134-0.047,0.27-0.182,0.303
								C317.851,373.765,317.831,373.767,317.811,373.767z M317.327,371.834c-0.112,0-0.215-0.076-0.242-0.19l-0.24-0.967
								c-0.034-0.134,0.048-0.27,0.182-0.303c0.138-0.041,0.27,0.048,0.303,0.182l0.24,0.967c0.034,0.134-0.048,0.27-0.182,0.303
								C317.367,371.832,317.346,371.834,317.327,371.834z M316.848,369.899c-0.112,0-0.215-0.076-0.242-0.189l-0.239-0.969
								c-0.032-0.134,0.05-0.27,0.184-0.303c0.132-0.036,0.27,0.05,0.303,0.184l0.237,0.967c0.033,0.135-0.048,0.27-0.182,0.303
								C316.888,369.897,316.868,369.899,316.848,369.899z M316.375,367.965c-0.112,0-0.215-0.076-0.243-0.19l-0.235-0.97
								c-0.032-0.134,0.05-0.27,0.184-0.302c0.134-0.031,0.271,0.051,0.302,0.185l0.235,0.968c0.032,0.134-0.05,0.27-0.184,0.303
								C316.414,367.963,316.394,367.965,316.375,367.965z M315.905,366.027c-0.113,0-0.215-0.077-0.243-0.191l-0.232-0.97
								c-0.032-0.134,0.051-0.269,0.185-0.301c0.14-0.035,0.27,0.052,0.301,0.186l0.232,0.968c0.032,0.134-0.05,0.269-0.185,0.302
								C315.944,366.025,315.925,366.027,315.905,366.027z M315.443,364.091c-0.113,0-0.216-0.077-0.243-0.192l-0.23-0.97
								c-0.032-0.135,0.052-0.27,0.186-0.301c0.142-0.033,0.27,0.052,0.301,0.186l0.23,0.97c0.032,0.134-0.051,0.269-0.185,0.301
								C315.481,364.089,315.462,364.091,315.443,364.091z M314.984,362.15c-0.113,0-0.216-0.077-0.243-0.192l-0.228-0.971
								c-0.031-0.135,0.052-0.269,0.186-0.3c0.143-0.033,0.27,0.053,0.3,0.187l0.228,0.969c0.032,0.135-0.052,0.27-0.185,0.301
								C315.022,362.148,315.003,362.15,314.984,362.15z M314.53,360.211c-0.114,0-0.217-0.078-0.243-0.193l-0.226-0.971
								c-0.031-0.135,0.052-0.269,0.187-0.3c0.133-0.035,0.27,0.053,0.3,0.187l0.226,0.971c0.031,0.135-0.052,0.269-0.186,0.3
								C314.567,360.209,314.549,360.211,314.53,360.211z M314.082,358.269c-0.114,0-0.217-0.078-0.244-0.194l-0.223-0.972
								c-0.03-0.135,0.054-0.269,0.189-0.3c0.134-0.028,0.268,0.054,0.3,0.188l0.223,0.972c0.03,0.135-0.054,0.269-0.189,0.3
								C314.119,358.267,314.1,358.269,314.082,358.269z M313.637,356.325c-0.114,0-0.217-0.078-0.244-0.194l-0.221-0.973
								c-0.03-0.134,0.055-0.269,0.189-0.299c0.137-0.029,0.269,0.055,0.299,0.189l0.221,0.971c0.03,0.135-0.054,0.269-0.188,0.3
								C313.675,356.323,313.656,356.325,313.637,356.325z M313.199,354.384c-0.114,0-0.218-0.079-0.244-0.195l-0.218-0.973
								c-0.03-0.135,0.055-0.269,0.189-0.299c0.14-0.027,0.269,0.056,0.299,0.189l0.218,0.973c0.03,0.134-0.055,0.269-0.19,0.299
								C313.235,354.382,313.217,354.384,313.199,354.384z M312.764,352.437c-0.114,0-0.218-0.079-0.244-0.195l-0.216-0.974
								c-0.029-0.135,0.056-0.268,0.19-0.298c0.14-0.029,0.269,0.056,0.298,0.19l0.216,0.972c0.03,0.135-0.055,0.269-0.19,0.299
								C312.801,352.435,312.782,352.437,312.764,352.437z M312.336,350.492c-0.115,0-0.219-0.08-0.244-0.196l-0.213-0.975
								c-0.029-0.135,0.057-0.268,0.191-0.297c0.133-0.027,0.268,0.057,0.297,0.191l0.213,0.973c0.029,0.135-0.056,0.269-0.19,0.298
								C312.371,350.49,312.353,350.492,312.336,350.492z M311.912,348.545c-0.115,0-0.219-0.08-0.244-0.197l-0.21-0.974
								c-0.029-0.136,0.057-0.269,0.191-0.297c0.145-0.033,0.269,0.057,0.297,0.191l0.21,0.974c0.029,0.135-0.057,0.267-0.191,0.297
								C311.947,348.543,311.93,348.545,311.912,348.545z M311.493,346.596c-0.115,0-0.22-0.08-0.244-0.197l-0.208-0.976
								c-0.029-0.135,0.057-0.268,0.192-0.296c0.138-0.034,0.268,0.057,0.296,0.192l0.208,0.974
								c0.029,0.136-0.057,0.269-0.191,0.297C311.527,346.594,311.51,346.596,311.493,346.596z M311.08,344.648
								c-0.116,0-0.22-0.081-0.245-0.198l-0.205-0.976c-0.028-0.136,0.059-0.268,0.193-0.297c0.14-0.023,0.268,0.06,0.297,0.193
								l0.205,0.976c0.028,0.136-0.059,0.268-0.193,0.297C311.114,344.646,311.096,344.648,311.08,344.648z M310.671,342.698
								c-0.116,0-0.22-0.081-0.245-0.198l-0.203-0.977c-0.027-0.136,0.06-0.268,0.194-0.296c0.14-0.022,0.268,0.06,0.296,0.194
								l0.203,0.975c0.028,0.136-0.059,0.267-0.193,0.297C310.705,342.696,310.687,342.698,310.671,342.698z M310.266,340.747
								c-0.116,0-0.221-0.081-0.245-0.199l-0.2-0.977c-0.027-0.135,0.06-0.268,0.195-0.295c0.134-0.023,0.268,0.061,0.295,0.195
								l0.2,0.976c0.027,0.136-0.06,0.267-0.194,0.296C310.3,340.745,310.283,340.747,310.266,340.747z M309.868,338.795
								c-0.116,0-0.221-0.081-0.245-0.199l-0.198-0.978c-0.027-0.136,0.061-0.267,0.195-0.295c0.147-0.023,0.268,0.061,0.295,0.195
								l0.198,0.976c0.027,0.136-0.06,0.268-0.194,0.296C309.901,338.793,309.885,338.795,309.868,338.795z M309.474,336.841
								c-0.117,0-0.222-0.082-0.245-0.201l-0.195-0.978c-0.027-0.136,0.061-0.268,0.196-0.294c0.139-0.027,0.268,0.062,0.294,0.196
								l0.195,0.978c0.027,0.135-0.06,0.267-0.196,0.294C309.507,336.839,309.49,336.841,309.474,336.841z M309.086,334.885
								c-0.117,0-0.222-0.082-0.245-0.201l-0.192-0.979c-0.026-0.136,0.062-0.267,0.197-0.293c0.142-0.027,0.267,0.063,0.293,0.197
								l0.192,0.977c0.027,0.136-0.061,0.268-0.196,0.294C309.118,334.884,309.101,334.885,309.086,334.885z M308.702,332.931
								c-0.117,0-0.222-0.083-0.245-0.202l-0.19-0.979c-0.026-0.136,0.062-0.267,0.197-0.293c0.142-0.035,0.267,0.063,0.293,0.197
								l0.19,0.979c0.026,0.136-0.062,0.267-0.197,0.293C308.733,332.93,308.718,332.931,308.702,332.931z M308.324,330.974
								c-0.118,0-0.223-0.083-0.245-0.203l-0.188-0.979c-0.026-0.136,0.063-0.267,0.198-0.292c0.135-0.032,0.267,0.063,0.292,0.198
								l0.188,0.978c0.026,0.136-0.063,0.267-0.198,0.292C308.355,330.973,308.34,330.974,308.324,330.974z M307.95,329.018
								c-0.118,0-0.223-0.083-0.245-0.203l-0.187-0.98c-0.025-0.135,0.065-0.266,0.2-0.292c0.141-0.026,0.266,0.065,0.292,0.2
								l0.185,0.979c0.026,0.136-0.063,0.267-0.198,0.292C307.981,329.017,307.966,329.018,307.95,329.018z M307.582,327.058
								c-0.118,0-0.223-0.084-0.246-0.204l-0.183-0.979c-0.024-0.136,0.064-0.267,0.2-0.292c0.139-0.027,0.267,0.065,0.292,0.2
								l0.183,0.979c0.025,0.136-0.064,0.266-0.2,0.292C307.612,327.057,307.596,327.058,307.582,327.058z M307.218,325.1
								c-0.118,0-0.223-0.084-0.246-0.204l-0.181-0.982c-0.024-0.136,0.065-0.267,0.201-0.291c0.14-0.029,0.266,0.065,0.291,0.201
								l0.181,0.98c0.025,0.136-0.064,0.266-0.2,0.292C307.248,325.099,307.232,325.1,307.218,325.1z M306.859,323.139
								c-0.119,0-0.224-0.084-0.246-0.205l-0.178-0.981c-0.024-0.136,0.066-0.266,0.202-0.29c0.133-0.026,0.266,0.066,0.29,0.202
								l0.178,0.979c0.024,0.136-0.065,0.266-0.201,0.291C306.888,323.138,306.874,323.139,306.859,323.139z M306.506,321.18
								c-0.119,0-0.225-0.085-0.246-0.206l-0.175-0.981c-0.025-0.136,0.066-0.266,0.203-0.289c0.14-0.032,0.265,0.067,0.289,0.203
								l0.175,0.979c0.024,0.136-0.066,0.266-0.202,0.29C306.535,321.178,306.52,321.18,306.506,321.18z M306.157,319.217
								c-0.119,0-0.225-0.085-0.246-0.207l-0.173-0.981c-0.024-0.136,0.066-0.266,0.203-0.289c0.141-0.032,0.265,0.067,0.289,0.203
								l0.173,0.981c0.024,0.136-0.066,0.266-0.203,0.289C306.185,319.216,306.171,319.217,306.157,319.217z M305.813,317.254
								c-0.12,0-0.226-0.086-0.246-0.207l-0.17-0.981c-0.024-0.137,0.067-0.266,0.203-0.289c0.143-0.027,0.266,0.068,0.289,0.203
								l0.17,0.981c0.023,0.137-0.067,0.266-0.203,0.289C305.842,317.253,305.827,317.254,305.813,317.254z M305.475,315.291
								c-0.12,0-0.226-0.086-0.246-0.207l-0.168-0.983c-0.023-0.136,0.068-0.266,0.204-0.288c0.144-0.027,0.266,0.068,0.288,0.204
								l0.168,0.981c0.023,0.137-0.067,0.266-0.203,0.289C305.504,315.29,305.489,315.291,305.475,315.291z M305.142,313.326
								c-0.12,0-0.226-0.086-0.246-0.208l-0.166-0.983c-0.022-0.136,0.069-0.265,0.206-0.287c0.134-0.026,0.266,0.069,0.288,0.205
								l0.164,0.981c0.023,0.137-0.068,0.266-0.204,0.288C305.17,313.325,305.156,313.326,305.142,313.326z M304.812,311.36
								c-0.12,0-0.227-0.087-0.246-0.209l-0.163-0.984c-0.022-0.136,0.07-0.265,0.207-0.287c0.144-0.02,0.265,0.071,0.287,0.207
								l0.161,0.982c0.023,0.136-0.068,0.265-0.205,0.287C304.84,311.359,304.826,311.36,304.812,311.36z M304.491,309.395
								c-0.12,0-0.227-0.087-0.247-0.21l-0.16-0.983c-0.022-0.137,0.071-0.265,0.207-0.287c0.145-0.021,0.266,0.072,0.287,0.207
								l0.16,0.983c0.022,0.136-0.07,0.265-0.207,0.287C304.517,309.394,304.504,309.395,304.491,309.395z M304.173,307.427
								c-0.121,0-0.228-0.088-0.247-0.21l-0.157-0.985c-0.021-0.137,0.071-0.265,0.208-0.286c0.145-0.018,0.265,0.072,0.286,0.208
								l0.157,0.983c0.021,0.137-0.071,0.265-0.207,0.287C304.199,307.426,304.185,307.427,304.173,307.427z M303.859,305.46
								c-0.121,0-0.228-0.088-0.247-0.211l-0.155-0.984c-0.021-0.137,0.071-0.265,0.208-0.286c0.147-0.021,0.265,0.072,0.286,0.208
								l0.155,0.984c0.021,0.137-0.071,0.265-0.208,0.286C303.885,305.459,303.872,305.46,303.859,305.46z M303.551,303.491
								c-0.121,0-0.227-0.088-0.247-0.212l-0.152-0.984c-0.021-0.137,0.072-0.264,0.209-0.285c0.138-0.017,0.264,0.072,0.285,0.209
								l0.152,0.984c0.022,0.137-0.072,0.264-0.209,0.285C303.577,303.49,303.564,303.491,303.551,303.491z M303.249,301.521
								c-0.121,0-0.228-0.088-0.247-0.212l-0.15-0.986c-0.021-0.136,0.073-0.264,0.21-0.284c0.144-0.025,0.264,0.074,0.284,0.21
								l0.15,0.984c0.021,0.137-0.072,0.264-0.209,0.285C303.274,301.52,303.262,301.521,303.249,301.521z M302.95,299.551
								c-0.122,0-0.228-0.089-0.247-0.213l-0.147-0.985c-0.021-0.137,0.073-0.264,0.21-0.284c0.144-0.023,0.264,0.074,0.284,0.21
								l0.147,0.985c0.021,0.136-0.073,0.264-0.21,0.284C302.974,299.551,302.962,299.551,302.95,299.551z M302.657,297.58
								c-0.122,0-0.228-0.089-0.247-0.213l-0.145-0.987c-0.02-0.137,0.074-0.264,0.211-0.283c0.143-0.023,0.264,0.075,0.283,0.211
								l0.145,0.985c0.021,0.137-0.074,0.264-0.21,0.284C302.681,297.579,302.669,297.58,302.657,297.58z M302.37,295.609
								c-0.122,0-0.229-0.089-0.247-0.213l-0.143-0.988c-0.02-0.137,0.075-0.264,0.212-0.282c0.133-0.024,0.263,0.075,0.282,0.212
								l0.143,0.984c0.02,0.137-0.073,0.264-0.21,0.284C302.394,295.608,302.382,295.609,302.37,295.609z M302.088,293.635
								c-0.123,0-0.23-0.09-0.247-0.215l-0.141-0.987c-0.019-0.137,0.077-0.263,0.214-0.282c0.146-0.01,0.264,0.078,0.282,0.214
								l0.139,0.985c0.02,0.137-0.075,0.263-0.212,0.282C302.111,293.634,302.099,293.635,302.088,293.635z M301.809,291.664
								c-0.123,0-0.23-0.091-0.248-0.216l-0.138-0.987c-0.018-0.137,0.077-0.263,0.214-0.282c0.149-0.014,0.264,0.078,0.282,0.214
								l0.138,0.987c0.019,0.137-0.077,0.263-0.214,0.282C301.832,291.663,301.82,291.664,301.809,291.664z M301.537,289.689
								c-0.123,0-0.23-0.091-0.248-0.216l-0.135-0.987c-0.019-0.137,0.077-0.264,0.214-0.282c0.145-0.01,0.263,0.078,0.282,0.214
								l0.135,0.987c0.019,0.137-0.077,0.264-0.214,0.282C301.559,289.688,301.548,289.689,301.537,289.689z M301.268,287.716
								c-0.124,0-0.231-0.091-0.248-0.217l-0.132-0.987c-0.018-0.137,0.078-0.263,0.215-0.281c0.147-0.015,0.263,0.078,0.281,0.215
								l0.132,0.987c0.018,0.137-0.078,0.263-0.215,0.281C301.29,287.715,301.279,287.716,301.268,287.716z M301.007,285.74
								c-0.124,0-0.231-0.092-0.248-0.217l-0.13-0.989c-0.018-0.137,0.079-0.263,0.216-0.28c0.131-0.017,0.263,0.079,0.28,0.216
								l0.13,0.987c0.018,0.137-0.078,0.263-0.215,0.281C301.028,285.739,301.017,285.74,301.007,285.74z M300.75,283.763
								c-0.124,0-0.232-0.092-0.248-0.218l-0.127-0.989c-0.018-0.137,0.079-0.262,0.217-0.279c0.143-0.017,0.262,0.08,0.279,0.217
								l0.127,0.987c0.018,0.137-0.079,0.263-0.216,0.28C300.771,283.762,300.76,283.763,300.75,283.763z M300.497,281.787
								c-0.124,0-0.232-0.092-0.248-0.218l-0.125-0.989c-0.018-0.138,0.08-0.263,0.217-0.279c0.146-0.018,0.262,0.081,0.279,0.217
								l0.125,0.987c0.018,0.137-0.079,0.263-0.216,0.28C300.518,281.786,300.508,281.787,300.497,281.787z M300.25,279.81
								c-0.125,0-0.232-0.093-0.248-0.219l-0.122-0.99c-0.017-0.138,0.081-0.262,0.218-0.278c0.148-0.015,0.262,0.081,0.278,0.218
								l0.122,0.988c0.018,0.138-0.08,0.263-0.217,0.279C300.27,279.809,300.26,279.81,300.25,279.81z M300.008,277.832
								c-0.125,0-0.232-0.093-0.248-0.22l-0.119-0.99c-0.017-0.137,0.082-0.262,0.219-0.277c0.136-0.018,0.262,0.082,0.277,0.219
								l0.119,0.988c0.017,0.137-0.081,0.262-0.218,0.278C300.027,277.831,300.017,277.832,300.008,277.832z M299.771,275.853
								c-0.125,0-0.233-0.094-0.248-0.221l-0.117-0.989c-0.017-0.137,0.082-0.261,0.219-0.277c0.135-0.02,0.262,0.082,0.277,0.219
								l0.117,0.989c0.017,0.137-0.081,0.262-0.219,0.277C299.791,275.852,299.781,275.853,299.771,275.853z M299.539,273.874
								c-0.126,0-0.233-0.094-0.248-0.221l-0.114-0.99c-0.017-0.137,0.082-0.261,0.22-0.277c0.149-0.014,0.261,0.083,0.276,0.22
								l0.114,0.99c0.017,0.137-0.082,0.261-0.22,0.277C299.557,273.874,299.548,273.874,299.539,273.874z M299.312,271.895
								c-0.126,0-0.233-0.094-0.248-0.221l-0.112-0.991c-0.016-0.137,0.083-0.261,0.22-0.276c0.149-0.018,0.262,0.083,0.276,0.221
								l0.112,0.989c0.017,0.137-0.082,0.261-0.22,0.277C299.331,271.894,299.321,271.895,299.312,271.895z M299.091,269.914
								c-0.126,0-0.234-0.094-0.248-0.222l-0.109-0.991c-0.016-0.137,0.084-0.261,0.221-0.276c0.15-0.014,0.261,0.084,0.275,0.221
								l0.109,0.99c0.016,0.137-0.083,0.261-0.22,0.276C299.109,269.914,299.099,269.914,299.091,269.914z M298.873,267.934
								c-0.126,0-0.234-0.095-0.248-0.223l-0.107-0.992c-0.015-0.137,0.085-0.26,0.223-0.275c0.14-0.008,0.261,0.085,0.275,0.222
								l0.106,0.99c0.016,0.137-0.084,0.261-0.221,0.276C298.89,267.933,298.882,267.934,298.873,267.934z M298.663,265.952
								c-0.126,0-0.234-0.095-0.248-0.223l-0.105-0.992c-0.014-0.138,0.086-0.26,0.224-0.274c0.143-0.01,0.261,0.085,0.274,0.223
								l0.103,0.989c0.016,0.137-0.084,0.261-0.221,0.276C298.68,265.952,298.672,265.952,298.663,265.952z M298.456,263.971
								c-0.127,0-0.235-0.096-0.249-0.224l-0.102-0.992c-0.014-0.137,0.087-0.26,0.224-0.273c0.149-0.022,0.26,0.087,0.274,0.224
								l0.102,0.99c0.014,0.138-0.086,0.26-0.224,0.274C298.472,263.97,298.465,263.971,298.456,263.971z M298.254,261.988
								c-0.127,0-0.235-0.096-0.249-0.225l-0.099-0.992c-0.014-0.138,0.087-0.26,0.225-0.273c0.145-0.009,0.26,0.087,0.273,0.225
								l0.099,0.991c0.014,0.137-0.087,0.26-0.224,0.273C298.27,261.988,298.262,261.988,298.254,261.988z M298.058,260.006
								c-0.128,0-0.236-0.097-0.249-0.226l-0.097-0.992c-0.014-0.138,0.087-0.26,0.225-0.273c0.149-0.01,0.26,0.087,0.273,0.225
								l0.097,0.992c0.014,0.138-0.087,0.26-0.225,0.273C298.074,260.005,298.066,260.006,298.058,260.006z M297.867,258.022
								c-0.128,0-0.236-0.097-0.249-0.227l-0.094-0.992c-0.013-0.137,0.088-0.259,0.226-0.272c0.133-0.011,0.259,0.088,0.273,0.226
								l0.094,0.992c0.013,0.137-0.088,0.259-0.226,0.273C297.883,258.022,297.875,258.022,297.867,258.022z"/>
						</g>
						<g>
							<path style="fill:#FFFFFF;" d="M322.788,392.551c-0.109,0-0.21-0.072-0.24-0.183l-0.134-0.481
								c-0.038-0.133,0.04-0.271,0.173-0.308c0.134-0.038,0.271,0.04,0.308,0.173l0.134,0.482c0.038,0.133-0.04,0.271-0.173,0.308
								C322.833,392.548,322.81,392.551,322.788,392.551z"/>
						</g>
					</g>
				</g>
				<g>
					<path style="fill:#9C7B45;" d="M310.626,247.63l0.095,6.157c0.472,3.04,0.148,6.151-0.941,9.028l0,0
						c-0.287,0.759-0.337,1.587-0.145,2.377c0.312,1.288,0.751,3.342,0.751,4.706c0,0,0.727,0.281,1.056-0.61l0.673,1.852
						c0.16,0.441,0.62,0.699,1.08,0.606l0.406-0.082c0.442-0.09,0.76-0.479,0.76-0.93v-0.345l0.408,0.517
						c0.21,0.266,0.545,0.399,0.88,0.351l0.662-0.095c0.467-0.067,0.814-0.467,0.814-0.939v-0.556l0.229,0.352
						c0.244,0.376,0.717,0.529,1.135,0.368l0.667-0.256c0.367-0.141,0.609-0.493,0.609-0.886v-0.326l0.161,0.143
						c0.306,0.272,0.751,0.317,1.105,0.113l0,0c0.305-0.176,0.488-0.505,0.474-0.857c-0.053-1.304-0.357-4.679-2.028-8.724
						c-0.301-0.728-0.503-1.493-0.578-2.278l-0.774-8.086L310.626,247.63z"/>
					<path style="opacity:0.2;fill:#FFFFFF;" d="M310.239,268.22c0.088,0.603,0.145,1.186,0.145,1.677c0,0,0.15,0.057,0.344,0.037
						c0.229-0.452,0.325-0.971,0.262-1.474C310.786,268.296,310.509,268.213,310.239,268.22z"/>
					<path style="opacity:0.2;fill:#FFFFFF;" d="M312.752,268.232c0.682-0.123,1.355-0.223,2.025-0.334
						c0.669-0.115,1.334-0.228,1.995-0.366c0.663-0.128,1.321-0.279,1.982-0.43c0.661-0.155,1.32-0.321,1.998-0.469
						c-0.59,0.365-1.223,0.651-1.873,0.889c-0.649,0.241-1.32,0.42-1.998,0.56c-0.68,0.13-1.368,0.223-2.06,0.25
						C314.131,268.362,313.438,268.341,312.752,268.232z"/>
				</g>
				<path style="opacity:0.1;fill:#FFFFFF;" d="M232.87,217.306c6.944-3.034,13.888-6.067,20.831-9.101
					C247.614,213.596,240.975,216.661,232.87,217.306z"/>
				<path style="opacity:0.2;" d="M287.288,198.259c-2.578,1.827-5.787,2.743-8.941,2.553c-3.154-0.19-6.229-1.485-8.569-3.608
					c1.293,3.323,4.879,5.958,8.421,6.363C281.741,203.972,285.276,201.203,287.288,198.259z"/>
				<path style="opacity:0.1;fill:#FFFFFF;" d="M309.981,221.822c-0.729,7.56,0.031,15.26,2.224,22.532
					C312.347,237.173,311.629,228.813,309.981,221.822z"/>
				<path style="fill:#5C4829;" d="M298.764,152.494c-1.647,1.016-3.92,0.891-5.445-0.3c-1.525-1.191-2.843-3.182-2.256-5.025
					c-1.511,0.814-3.492,0.224-4.688-1.006c-1.196-1.23-1.873-2.934-2.153-4.627c-1.959-0.217-3.363-1.882-3.63-3.834
					c-0.775,0.477-1.788,0.543-2.62,0.172c-0.831-0.372-1.458-1.345-1.62-2.241c-1.058,2.546-3.358,4.54-6.028,5.227
					c-0.286-3.634,1.275-7.74,3.758-10.41c1.987-2.137,4.676-3.579,7.526-4.204c2.85-0.625,5.852-0.451,8.658,0.348
					c2.156,0.614,4.243,1.617,5.84,3.19c1.455,1.433,2.444,3.274,3.2,5.171C301.536,140.545,301.598,147.183,298.764,152.494z"/>
				<ellipse style="fill:#5C4829;" cx="273.156" cy="144.966" rx="0.709" ry="1.737"/>
				<ellipse style="fill:#5C4829;" cx="281.594" cy="144.966" rx="0.709" ry="1.737"/>
				<path style="fill:#5C4829;" d="M275.063,141.532c-0.679-0.661-1.618-1.048-2.565-1.059c-0.948-0.011-1.895,0.354-2.59,0.999
					c0.018,0.296,0.325,0.331,0.622,0.337c0.297,0.006,0.577-0.119,0.863-0.201c0.655-0.186,1.375-0.138,1.999,0.135
					c0.255,0.111,0.503,0.261,0.781,0.282C274.45,142.045,275.046,141.81,275.063,141.532z"/>
				<path style="fill:#5C4829;" d="M279.725,140.755c0.679-0.661,1.618-1.048,2.565-1.059c0.948-0.011,1.895,0.354,2.59,0.999
					c-0.018,0.296-0.325,0.331-0.622,0.337c-0.297,0.006-0.577-0.119-0.863-0.201c-0.655-0.186-1.375-0.138-1.999,0.135
					c-0.255,0.111-0.503,0.262-0.781,0.282C280.339,141.268,279.742,141.033,279.725,140.755z"/>
				<g style="opacity:0.2;">
					<path d="M273.45,151.126c0.447,0.222,0.934,0.277,1.363,0.325c0.014,0.001,0.028,0.003,0.042,0.003
						c0.188,0,0.35-0.142,0.373-0.333c0.022-0.206-0.125-0.391-0.331-0.415c-0.386-0.044-0.785-0.089-1.114-0.252
						c-0.304-0.151-0.512-0.411-0.529-0.663c-0.025-0.378,0.327-0.743,0.723-1.152c1.268-1.315,2.145-3.031,2.47-4.832
						c0.037-0.204-0.099-0.399-0.303-0.436c-0.209-0.038-0.398,0.099-0.435,0.303c-0.299,1.656-1.105,3.235-2.324,4.499
						c-0.413,0.427-0.927,0.958-0.878,1.669C272.542,150.364,272.903,150.856,273.45,151.126z"/>
					<path d="M279.588,151.992c-0.103-0.18-0.333-0.244-0.511-0.143c-1.718,0.966-3.905,1.071-5.706,0.272
						c-0.19-0.084-0.412,0.001-0.495,0.191c-0.084,0.189,0.001,0.411,0.19,0.495c0.9,0.399,1.887,0.597,2.873,0.597
						c1.222,0,2.443-0.303,3.505-0.901C279.625,152.401,279.689,152.173,279.588,151.992z"/>
				</g>
				<path style="fill:#9C6C45;" d="M287.785,148.939c0,0.845-1.992,1.529-4.449,1.529c-2.457,0-4.449-0.685-4.449-1.529
					s1.992-1.529,4.449-1.529C285.794,147.41,287.785,148.094,287.785,148.939z"/>
				<path style="fill:#353D70;" d="M283.675,402.267h-19.279c-1.538,0-2.786-1.247-2.786-2.785l0,0c0-1.538,1.247-2.785,2.786-2.785
					h19.279c1.538,0,2.786,1.247,2.786,2.785l0,0C286.461,401.02,285.214,402.267,283.675,402.267z"/>
				<path style="fill:#353D70;" d="M332.278,400.983h-19.28c-1.538,0-2.785-1.247-2.785-2.785l0,0c0-1.538,1.247-2.786,2.785-2.786
					h19.28c1.538,0,2.785,1.247,2.785,2.786l0,0C335.064,399.736,333.816,400.983,332.278,400.983z"/>
				<path style="fill:#353D70;" d="M332.278,400.983h-19.28c-1.538,0-2.785-1.247-2.785-2.785l0,0c0-1.538,1.247-2.786,2.785-2.786
					h19.28c1.538,0,2.785,1.247,2.785,2.786l0,0C335.064,399.736,333.816,400.983,332.278,400.983z"/>
			</g>
			<g>
				<path style="fill:#FFBF4C;" d="M230.426,70.882h-70.931c-7.008,0-12.192,5.681-11.579,12.689l2.654,30.332
					c0.613,7.008,6.791,12.689,13.799,12.689h48.844l13.235,12.17l3.696-12.17h5.157c7.008,0,12.192-5.681,11.579-12.689
					l-2.654-30.332C243.613,76.563,237.434,70.882,230.426,70.882z"/>
				<path style="fill:#FFBF4C;" d="M230.493,89.617h-66.74c-1.95,0-3.669-1.581-3.839-3.53v0c-0.171-1.95,1.272-3.53,3.221-3.53
					h66.74c1.95,0,3.669,1.581,3.839,3.53v0C233.885,88.037,232.443,89.617,230.493,89.617z"/>
				<path style="fill:#FFBF4C;" d="M231.6,102.268h-66.74c-1.95,0-3.669-1.58-3.839-3.53l0,0c-0.171-1.95,1.272-3.53,3.221-3.53
					h66.739c1.95,0,3.669,1.581,3.839,3.53l0,0C234.992,100.688,233.55,102.268,231.6,102.268z"/>
				<path style="fill:#FFBF4C;" d="M209.171,114.919h-43.204c-1.95,0-3.668-1.581-3.839-3.53l0,0c-0.171-1.95,1.272-3.53,3.221-3.53
					h43.204c1.95,0,3.669,1.581,3.839,3.53l0,0C212.563,113.338,211.121,114.919,209.171,114.919z"/>
			</g>
			<g>
				<g>
					<path style="fill:#6772B5;" d="M374.421,387.631c-3.938-28.468-6.557-57.118-7.846-85.828
						c-0.974-21.697-1.036-44.224,7.756-64.084c15.372,39.93,23.089,82.976,24.13,125.75c0.245,10.062-8.441,20.535-16.256,26.877
						C379.922,389.205,376.704,388.772,374.421,387.631z"/>
					<path style="fill:#7681CF;" d="M375.231,379.591c-4.274-10.872-8.549-21.743-12.823-32.615
						c-3.453-8.784-6.969-17.98-6.053-27.374c17.701,7.567,30.402,25.663,31.502,44.882c0.207,3.613-1.852,8.113-4.407,10.676
						C380.895,377.724,378.458,377.952,375.231,379.591z"/>
					<path style="fill:#808CE0;" d="M379.679,403.115c3.749-33.315,7.499-66.63,11.248-99.945
						c2.073-18.416,4.421-37.615,14.686-53.044c10.3-15.482,28.185-26.691,35.763-42.856c0.742-1.583,3.114-1.069,3.146,0.679
						c0.262,14.186,0.952,28.732,0.937,42.686c-0.01,9.257-0.136,18.98-4.676,27.047c-4.646,8.255-13.241,13.536-18.748,21.243
						c-10.551,14.77-7.824,34.786-10.721,52.704C408.159,371.151,395.095,390.727,379.679,403.115z"/>
					<path style="opacity:0.2;" d="M420.714,269.801c1.442-3.016,2.893-6.056,4.32-9.122c0.111-0.033,0.219-0.081,0.318-0.155
						c6.001-4.485,11.921-9.238,17.596-14.126c0.419-0.36,0.466-0.992,0.105-1.411c-0.362-0.419-0.994-0.465-1.41-0.105
						c-4.819,4.151-9.821,8.192-14.893,12.064c4.422-9.763,8.429-19.814,10.842-30.297c0.124-0.538-0.212-1.075-0.75-1.199
						c-0.544-0.122-1.075,0.212-1.199,0.751c-3.436,14.924-10.195,29.063-16.733,42.736c-0.979,2.048-1.966,4.115-2.949,6.196
						c-0.496-8.2-1.348-16.433-2.585-24.528c-0.083-0.546-0.583-0.92-1.14-0.838c-0.546,0.083-0.921,0.594-0.837,1.14
						c1.4,9.172,2.334,18.524,2.774,27.798c0.003,0.059,0.028,0.11,0.041,0.166c-2.182,4.712-4.3,9.49-6.194,14.304
						c-2.014,5.119-3.773,10.312-5.355,15.551l-3.084-23.23c-0.072-0.548-0.574-0.934-1.123-0.859
						c-0.547,0.072-0.933,0.575-0.859,1.123l3.551,26.745c0.028,0.209,0.128,0.384,0.259,0.529
						c-2.833,10.095-4.988,20.361-6.72,30.692c-0.831-5.798-1.474-11.649-1.899-17.455c-0.04-0.55-0.508-0.97-1.07-0.924
						c-0.551,0.04-0.965,0.52-0.924,1.07c0.542,7.394,1.42,14.863,2.608,22.201c0.044,0.267,0.194,0.485,0.395,0.635
						c-2.129,13.842-3.606,27.758-5.054,41.479c-0.059,0.549,0.34,1.041,0.89,1.099c0.035,0.004,0.07,0.006,0.105,0.006
						c0.506,0,0.939-0.382,0.993-0.896c0.952-9.018,1.92-18.122,3.072-27.23c5.24-5.969,9.779-12.553,13.486-19.581
						c0.258-0.488,0.07-1.094-0.418-1.352c-0.491-0.257-1.094-0.07-1.352,0.418c-3.162,5.995-6.942,11.659-11.253,16.884
						c1.227-9.272,2.692-18.535,4.558-27.711c0.067-0.043,0.14-0.075,0.197-0.135c5.466-5.708,10.53-11.89,15.051-18.373
						c0.315-0.453,0.205-1.076-0.248-1.393c-0.455-0.316-1.078-0.204-1.393,0.248c-3.894,5.585-8.216,10.922-12.835,15.94
						c2.268-10.476,5.128-20.814,8.841-30.896c0.048-0.022,0.097-0.037,0.142-0.067c8.995-6.053,17.563-12.885,25.465-20.307
						c0.402-0.378,0.423-1.011,0.044-1.413c-0.377-0.403-1.01-0.422-1.413-0.044c-7.18,6.744-14.92,12.988-23.029,18.602
						c0.081-0.207,0.152-0.417,0.233-0.624C413.095,285.738,416.968,277.637,420.714,269.801z"/>
				</g>
				<polygon style="fill:#EFF0FC;" points="408.089,424.05 369.435,424.05 361.023,369.899 416.502,369.899 				"/>
				<rect x="354.622" y="363.262" style="fill:#EFF0FC;" width="66.498" height="14.206"/>
				<polygon style="opacity:0.1;" points="413.355,390.154 415.326,377.467 362.199,377.467 362.462,379.161 				"/>
			</g>
			<g>
				<path style="fill:#D2D3FC;" d="M340.634,148.035c0,1.538-1.247,2.785-2.785,2.785s-2.785-1.247-2.785-2.785
					s1.247-2.785,2.785-2.785S340.634,146.497,340.634,148.035z"/>
				<circle style="fill:#D2D3FC;" cx="309.112" cy="93.672" r="4.054"/>
				<path style="fill:#D2D3FC;" d="M382.302,181.244c0,0.724-0.587,1.312-1.312,1.312c-0.724,0-1.312-0.587-1.312-1.312
					c0-0.724,0.587-1.312,1.312-1.312C381.715,179.932,382.302,180.519,382.302,181.244z"/>
				<circle style="fill:#D2D3FC;" cx="236.305" cy="165.379" r="1.47"/>
				<circle style="fill:#D2D3FC;" cx="79.332" cy="113.888" r="2.499"/>
				<path style="fill:#D2D3FC;" d="M382.178,141.249c0,1.38-1.119,2.499-2.499,2.499c-1.38,0-2.499-1.119-2.499-2.499
					c0-1.38,1.119-2.499,2.499-2.499C381.059,138.75,382.178,139.869,382.178,141.249z"/>
				<path style="fill:#D2D3FC;" d="M344.172,107.851L344.172,107.851c0.469,1.723,1.815,3.068,3.537,3.537l0,0l0,0
					c-1.723,0.469-3.068,1.815-3.537,3.537l0,0l0,0c-0.469-1.722-1.815-3.068-3.537-3.537l0,0l0,0
					C342.357,110.919,343.702,109.574,344.172,107.851L344.172,107.851z"/>
				<path style="fill:#D2D3FC;" d="M105.348,79.019L105.348,79.019c0.469,1.723,1.815,3.068,3.537,3.537l0,0l0,0
					c-1.722,0.469-3.068,1.815-3.537,3.537l0,0l0,0c-0.469-1.723-1.815-3.068-3.537-3.537l0,0l0,0
					C103.534,82.087,104.879,80.742,105.348,79.019L105.348,79.019z"/>
				<path style="fill:#D2D3FC;" d="M277.963,79.019L277.963,79.019c0.469,1.723,1.815,3.068,3.537,3.537l0,0l0,0
					c-1.722,0.469-3.068,1.815-3.537,3.537l0,0l0,0c-0.469-1.723-1.815-3.068-3.537-3.537l0,0l0,0
					C276.148,82.087,277.494,80.742,277.963,79.019L277.963,79.019z"/>
				<path style="fill:#D2D3FC;" d="M129.905,122.33L129.905,122.33c0.469,1.723,1.815,3.068,3.537,3.537l0,0l0,0
					c-1.722,0.469-3.068,1.815-3.537,3.537l0,0l0,0c-0.469-1.723-1.815-3.068-3.537-3.537l0,0l0,0
					C128.09,125.398,129.436,124.052,129.905,122.33L129.905,122.33z"/>
				<path style="fill:#D2D3FC;" d="M416.502,136.158L416.502,136.158c0.469,1.723,1.815,3.068,3.537,3.537h0h0
					c-1.723,0.469-3.068,1.815-3.537,3.537l0,0l0,0c-0.469-1.723-1.815-3.068-3.537-3.537l0,0l0,0
					C414.687,139.227,416.033,137.881,416.502,136.158L416.502,136.158z"/>
				<path style="fill:#D2D3FC;" d="M416.502,202.783L416.502,202.783c0.469,1.723,1.815,3.068,3.537,3.537h0h0
					c-1.723,0.469-3.068,1.815-3.537,3.537l0,0l0,0c-0.469-1.723-1.815-3.068-3.537-3.537l0,0l0,0
					C414.687,205.851,416.033,204.505,416.502,202.783L416.502,202.783z"/>
				<path style="fill:#D2D3FC;" d="M387.871,221.889L387.871,221.889c0.469,1.723,1.815,3.068,3.537,3.537h0h0
					c-1.723,0.469-3.068,1.815-3.537,3.537l0,0l0,0c-0.469-1.722-1.815-3.068-3.537-3.537l0,0l0,0
					C386.057,224.958,387.402,223.612,387.871,221.889L387.871,221.889z"/>
			</g>
		</g>
		<path style="fill:#808CE0;" d="M469.806,429.118H30.194c-1.399,0-2.534-1.134-2.534-2.534l0,0c0-1.399,1.134-2.534,2.534-2.534
			h439.613c1.399,0,2.534,1.134,2.534,2.534l0,0C472.34,427.984,471.206,429.118,469.806,429.118z"/>
	</g>
</g>
<g id="TEXTURE">
</g>
</svg>
